<svg id="Capa_1" enable-background="new 0 0 512 512" height="512" viewBox="0 0 512 512" width="512" xmlns="http://www.w3.org/2000/svg"><g><path d="m76 182h120v30h-120z"/><path d="m76 242h180v30h-180z"/><path d="m121 362c-24.813 0-45 20.187-45 45s20.187 45 45 45 45-20.187 45-45-20.187-45-45-45zm0 60c-8.271 0-15-6.729-15-15s6.729-15 15-15 15 6.729 15 15-6.729 15-15 15z"/><path d="m466 362v-75c0-36.219-25.808-66.522-60-73.491v-114.722l-98.787-98.787h-291.213v512h480v-150zm-30-75v75h-30v-117.42c17.459 6.192 30 22.865 30 42.42zm-60 75h-30v-75c0-19.555 12.541-36.228 30-42.42zm-60-310.787 38.787 38.787h-38.787zm-270 430.787v-452h240v90h90v93.509c-34.192 6.968-60 37.271-60 73.491v75h-30v120zm420 0h-150v-90h150z"/><path d="m376 422h30v30h-30z"/></g></svg>