<svg id="Capa_1" fill="#fff" enable-background="new 0 0 512 512" height="512" viewBox="0 0 512 512" width="512" xmlns="http://www.w3.org/2000/svg"><g><path d="m496 257c0-52.805-39.183-96.623-90-103.924v-54.289l-98.787-98.787h-291.213v512h420v-120h-30v-31.076c50.817-7.301 90-51.119 90-103.924zm-30 0c0 41.355-33.645 75-75 75s-75-33.645-75-75 33.645-75 75-75 75 33.645 75 75zm-150-205.787 38.787 38.787h-38.787zm90 430.787h-30v-60h30zm-60-90v90h-300v-452h240v90h90v33.076c-50.817 7.301-90 51.119-90 103.924s39.183 96.623 90 103.924v31.076z"/><path d="m76 182h120v30h-120z"/><path d="m76 242h180v30h-180z"/><path d="m121 362c-24.813 0-45 20.187-45 45s20.187 45 45 45 45-20.187 45-45-20.187-45-45-45zm0 60c-8.271 0-15-6.729-15-15s6.729-15 15-15 15 6.729 15 15-6.729 15-15 15z"/></g></svg>